<svg t="1646637408823" class="icon" viewBox="0 0 1024 1024" version="1.1" xmlns="http://www.w3.org/2000/svg" p-id="3684" width="200" height="200"><path d="M274.00722963 512c0 131.43608889 106.55668148 237.99277037 237.99277037 237.99277037S749.99277037 643.43608889 749.99277037 512 643.43608889 274.00722963 512 274.00722963 274.00722963 380.56391111 274.00722963 512z m351.35791407-113.3651437A160.33261037 160.33261037 0 1 1 512 351.67952591a159.28888889 159.28888889 0 0 1 113.3651437 46.95533039z" fill="#8a8a8a" p-id="3685"></path><path d="M512 100.13051259c-8.65317925 0-17.39131259 0.27913482-26.14158222 0.83740444l-75.42708148-83.5341274-22.68273778 5.74046815a501.31399111 501.31399111 0 0 0-133.49925927 55.3657837L234.07881482 90.51856592l5.74046814 112.36996741a413.22875259 413.22875259 0 0 0-36.95502222 36.95502222l-112.34569482-5.76474073-11.97852444 20.09770666a501.31399111 501.31399111 0 0 0-55.3657837 133.49925927l-5.75260445 22.68273777 83.5462637 75.42708148a408.45918815 408.45918815 0 0 0 0 52.28316445l-83.5462637 75.42708147 5.75260445 22.68273778a501.31399111 501.31399111 0 0 0 55.3657837 133.49925927L90.51856592 789.92118518l112.36996741-5.74046814a414.8307437 414.8307437 0 0 0 36.95502222 36.95502222L234.07881482 933.48143408l20.09770666 11.97852444a501.31399111 501.31399111 0 0 0 133.49925927 55.3657837l22.68273777 5.75260445 75.42708148-83.5462637c8.75026963 0.55826963 17.48840297 0.83740445 26.14158222 0.83740445s17.39131259-0.27913482 26.14158223-0.83740445l75.42708147 83.5462637 22.68273778-5.75260445a501.31399111 501.31399111 0 0 0 133.49925927-55.3657837l20.24334221-11.97852444-5.74046814-112.36996741a413.22875259 413.22875259 0 0 0 36.95502222-36.95502222L933.48143408 789.92118518l11.97852444-20.09770666a501.31399111 501.31399111 0 0 0 55.3657837-133.49925927l5.74046815-22.68273777-83.5341274-75.42708148a408.45918815 408.45918815 0 0 0 0-52.28316445l83.5341274-75.42708147-5.74046815-22.68273778a501.31399111 501.31399111 0 0 0-55.3657837-133.49925927l-11.97852444-20.24334221-112.36996741 5.74046814a414.8307437 414.8307437 0 0 0-36.95502222-36.95502222l5.76474073-112.34569482-20.09770666-11.97852444a501.31399111 501.31399111 0 0 0-133.49925927-55.3657837l-22.68273777-5.74046815-75.42708148 83.5341274c-8.82308741-0.55826963-17.56122075-0.83740445-26.2144-0.83740444z m-37.6953363 79.79614816a335.58072889 335.58072889 0 0 1 75.3906726 0l19.80643555 2.22094221L639.43111111 104.74230518a424.62473482 424.62473482 0 0 1 70.51188148 29.24847407l-5.31569777 104.14155853 15.59514073 12.4397037a336.90358518 336.90358518 0 0 1 53.25406815 53.25406815l12.43970371 15.59514074 104.14155851-5.31569778a424.62473482 424.62473482 0 0 1 29.24847408 70.51188149l-77.40529778 69.88079407 2.22094223 19.80643555a335.58072889 335.58072889 0 0 1 0 75.3906726l-2.22094223 19.80643555L919.25769482 639.43111111a424.62473482 424.62473482 0 0 1-29.24847407 70.51188148l-104.14155853-5.31569777-12.4397037 15.59514073a336.97640297 336.97640297 0 0 1-53.25406815 53.26620445l-15.59514074 12.42756741 5.31569778 104.14155851A423.55674075 423.55674075 0 0 1 639.43111111 919.24555852l-69.88079408-77.39316149-19.80643555 2.22094222a335.58072889 335.58072889 0 0 1-75.39067259 0l-19.80643556-2.22094222L384.56888889 919.25769482a424.62473482 424.62473482 0 0 1-70.51188148-29.24847407l5.31569777-104.14155853-15.59514073-12.4275674a338.08080592 338.08080592 0 0 1-53.26620445-53.26620445l-12.42756741-15.59514074-104.14155851 5.31569778a424.62473482 424.62473482 0 0 1-29.24847408-70.51188149l77.40529778-69.88079407-2.22094223-19.80643555a335.58072889 335.58072889 0 0 1 0-75.3906726l2.22094223-19.80643555L104.75444148 384.56888889a423.55674075 423.55674075 0 0 1 29.23633777-70.51188148l104.14155853 5.31569777 12.4275674-15.59514073a336.97640297 336.97640297 0 0 1 53.26620445-53.25406815l15.59514074-12.43970371-5.31569778-104.14155851a424.62473482 424.62473482 0 0 1 70.51188149-29.24847408l69.88079407 77.40529778z" p-id="3686"></path></svg>